<?xml version="1.0" standalone="no"?>
<!DOCTYPE svg PUBLIC "-//W3C//DTD SVG 20010904//EN"
 "http://www.w3.org/TR/2001/REC-SVG-20010904/DTD/svg10.dtd">
<svg version="1.0" xmlns="http://www.w3.org/2000/svg"
 width="260.000000pt" height="260.000000pt" viewBox="0 0 260.000000 260.000000"
 preserveAspectRatio="xMidYMid meet">
<metadata>
Created by potrace 1.14, written by Peter Selinger 2001-2017
</metadata>
<g transform="translate(0.000000,260.000000) scale(0.100000,-0.100000)"
fill="#000000" stroke="none">
<path d="M1106 2589 c-25 -7 -95 -18 -133 -21 -7 -1 -13 -5 -13 -10 0 -4 -3
-7 -7 -7 -5 1 -10 0 -13 -1 -3 -1 -18 -4 -33 -6 -16 -3 -52 -16 -82 -29 -79
-37 -109 -48 -117 -47 -5 1 -8 -3 -8 -10 0 -6 -3 -9 -6 -5 -3 3 -15 -3 -27
-14 -11 -10 -29 -19 -39 -19 -10 0 -18 -4 -18 -10 0 -5 -16 -17 -35 -26 -19
-9 -35 -20 -35 -25 0 -5 -4 -9 -10 -9 -12 0 -47 -28 -107 -86 -24 -23 -43 -40
-43 -39 0 2 -13 -10 -30 -27 -16 -16 -30 -32 -30 -34 0 -3 -6 -11 -12 -18 -7
-8 -20 -24 -28 -36 -8 -13 -22 -30 -31 -39 -25 -25 -75 -104 -83 -128 -4 -13
-12 -23 -18 -23 -6 0 -9 -3 -5 -6 3 -3 -3 -22 -13 -42 -18 -35 -41 -91 -42
-102 0 -3 -5 -14 -11 -25 -6 -11 -12 -24 -14 -30 -1 -5 -9 -35 -17 -65 -34
-123 -38 -165 -39 -340 -1 -157 4 -221 21 -275 5 -16 8 -39 6 -50 -2 -11 2
-23 8 -26 6 -4 12 -16 13 -26 0 -10 4 -24 9 -31 4 -6 4 -12 0 -12 -3 0 -1 -7
6 -15 7 -8 10 -15 6 -15 -4 0 1 -15 11 -33 9 -17 18 -37 19 -43 1 -7 8 -23 15
-37 8 -14 25 -47 39 -74 14 -26 28 -49 33 -51 4 -2 7 -10 7 -18 0 -8 4 -14 9
-14 5 0 14 -13 20 -28 6 -15 28 -46 49 -69 20 -22 50 -57 67 -77 16 -20 36
-36 44 -36 8 0 12 -3 8 -6 -7 -7 15 -34 24 -28 3 2 12 -8 19 -21 7 -14 19 -25
27 -25 7 0 13 -5 13 -11 0 -5 4 -8 8 -5 5 3 28 -13 51 -35 24 -21 47 -39 52
-39 5 0 9 -5 9 -11 0 -5 4 -8 9 -5 5 3 19 -2 32 -12 38 -27 67 -42 84 -42 8 0
15 -4 15 -10 0 -5 9 -10 20 -10 11 0 20 -5 20 -12 0 -6 3 -8 6 -5 4 3 16 1 28
-5 11 -7 24 -11 29 -10 4 1 7 -2 7 -6 0 -5 6 -9 13 -10 61 -9 87 -16 87 -24 0
-6 7 -8 15 -4 8 3 15 2 15 -3 0 -4 10 -7 22 -6 13 1 43 -5 68 -13 66 -21 424
-19 459 2 5 3 28 7 50 8 23 1 41 5 41 10 0 5 5 6 10 3 6 -4 17 -1 25 5 8 7 28
13 45 15 16 1 37 8 46 16 9 8 20 14 23 13 3 0 35 12 69 28 35 15 66 28 70 28
3 0 13 6 21 14 9 8 23 16 31 18 14 3 20 7 54 36 8 6 18 12 21 12 6 0 23 13 56
43 10 9 19 15 19 13 0 -8 52 38 111 99 105 109 118 123 112 129 -3 3 2 8 11
12 9 3 16 12 16 20 0 8 5 14 10 14 6 0 10 6 10 14 0 7 7 19 15 26 9 7 30 42
47 77 16 35 34 65 38 68 5 3 12 20 16 37 3 18 13 42 20 53 7 11 15 30 17 40 1
11 6 26 10 33 5 6 6 12 3 12 -3 0 1 18 9 39 12 35 24 87 29 131 1 9 5 20 8 25
9 15 6 355 -3 390 -9 32 -18 78 -23 110 -1 11 -9 38 -16 60 -13 40 -17 53 -19
68 0 4 -8 22 -18 40 -9 17 -18 38 -19 46 -2 8 -8 17 -14 21 -7 4 -11 9 -10 11
1 2 -3 15 -8 29 -5 14 -10 30 -12 35 -1 6 -12 24 -26 42 -13 17 -24 36 -24 41
0 5 -9 17 -20 27 -11 10 -20 23 -20 29 0 7 -18 32 -40 56 -23 25 -60 66 -83
92 -23 26 -48 47 -55 47 -7 1 -11 4 -9 9 3 4 -11 18 -31 32 -19 14 -49 39 -65
55 -17 17 -27 23 -23 15 4 -9 2 -8 -7 3 -8 9 -19 17 -24 17 -6 0 -16 7 -23 15
-7 8 -16 13 -20 10 -5 -3 -12 -1 -15 5 -4 6 -48 30 -98 54 -111 53 -131 61
-174 69 -9 2 -19 9 -20 14 -2 6 -13 9 -23 6 -11 -3 -28 -2 -37 2 -10 5 -31 10
-48 12 -16 2 -45 8 -63 13 -41 11 -356 10 -396 -1z m321 -694 c29 -8 71 -22
95 -33 24 -10 48 -20 53 -22 6 -2 15 -8 20 -12 6 -5 31 -25 58 -45 26 -19 47
-40 47 -44 0 -5 7 -9 15 -9 8 0 15 -5 15 -10 0 -6 11 -23 24 -37 25 -26 89
-148 102 -193 14 -46 15 -54 21 -145 3 -64 0 -110 -11 -160 -17 -72 -65 -185
-78 -185 -5 0 -8 -6 -8 -14 0 -19 -143 -162 -170 -171 -11 -3 -20 -11 -20 -16
0 -5 -8 -9 -18 -9 -10 0 -22 -4 -28 -9 -23 -21 -142 -53 -225 -60 -50 -3 -92
-4 -94 -1 -2 3 -18 7 -37 8 -38 3 -127 30 -145 45 -7 5 -13 6 -13 3 0 -4 -13
2 -29 13 -16 12 -32 21 -35 21 -22 0 -170 152 -186 190 -7 17 -16 30 -21 30
-5 0 -9 4 -9 9 0 5 -5 22 -12 38 -6 15 -12 30 -13 33 -1 3 -4 12 -7 20 -27 68
-35 252 -16 315 6 17 11 37 12 46 2 15 56 127 79 164 40 64 203 197 252 205 6
1 19 7 30 13 64 34 258 46 352 22z"/>
</g>
</svg>
